<svg xmlns="http://www.w3.org/2000/svg" width="151.146" height="28.215" viewBox="0 0 151.146 28.215"><g transform="translate(5516.678 479.338)"><path d="M21.25,28.58V33H2.822V9.2H20.808v4.42H8.3v5.168h11.05v4.284H8.3V28.58Zm18.7-7.854h5.032v9.656a14.377,14.377,0,0,1-4.488,2.244,17.424,17.424,0,0,1-5.134.782A13.913,13.913,0,0,1,28.7,31.827a11.769,11.769,0,0,1-4.641-4.386A12.084,12.084,0,0,1,22.372,21.1a12.084,12.084,0,0,1,1.683-6.341,11.712,11.712,0,0,1,4.675-4.386,14.185,14.185,0,0,1,6.732-1.581A14.732,14.732,0,0,1,41.14,9.846a11.251,11.251,0,0,1,4.284,3.06L41.888,16.17a8.178,8.178,0,0,0-6.154-2.686,8.4,8.4,0,0,0-4.046.952,6.83,6.83,0,0,0-2.754,2.686,7.906,7.906,0,0,0-.986,3.978,7.837,7.837,0,0,0,.986,3.944,6.974,6.974,0,0,0,2.737,2.7,8.112,8.112,0,0,0,4,.969A8.927,8.927,0,0,0,39.95,27.7ZM70.21,9.2V33H64.7V23.242H53.89V33H48.382V9.2H53.89v9.384H64.7V9.2ZM85.68,33.408A13.892,13.892,0,0,1,79,31.81a11.86,11.86,0,0,1-4.658-4.4A12.02,12.02,0,0,1,72.658,21.1a12.02,12.02,0,0,1,1.683-6.307A11.86,11.86,0,0,1,79,10.39a14.73,14.73,0,0,1,13.345,0A11.91,11.91,0,0,1,98.7,21.1a11.91,11.91,0,0,1-6.358,10.71A13.793,13.793,0,0,1,85.68,33.408Zm0-4.692a7.552,7.552,0,0,0,3.808-.969,6.954,6.954,0,0,0,2.669-2.7,7.946,7.946,0,0,0,.969-3.944,7.946,7.946,0,0,0-.969-3.944,6.954,6.954,0,0,0-2.669-2.7,7.967,7.967,0,0,0-7.616,0,6.954,6.954,0,0,0-2.669,2.7,7.946,7.946,0,0,0-.969,3.944,7.946,7.946,0,0,0,.969,3.944,6.954,6.954,0,0,0,2.669,2.7A7.552,7.552,0,0,0,85.68,28.716ZM101.15,9.2h5.508V28.512h11.934V33H101.15Zm21.556,4.488H115.09V9.2h20.74v4.488h-7.616V33h-5.508Z" transform="translate(-5519 -487)" fill="#40676e" stroke="rgba(0,0,0,0)" stroke-width="1"/><path d="M8.358-5.1a2.584,2.584,0,0,1,1.316.889,2.451,2.451,0,0,1,.476,1.533,2.265,2.265,0,0,1-1,1.981A5.117,5.117,0,0,1,6.23,0H1.162V-9.8H5.95A4.687,4.687,0,0,1,8.7-9.114,2.171,2.171,0,0,1,9.66-7.252a2.39,2.39,0,0,1-.343,1.274A2.4,2.4,0,0,1,8.358-5.1Zm-4.942-3v2.31H5.67a2.275,2.275,0,0,0,1.274-.294.981.981,0,0,0,.434-.868.963.963,0,0,0-.434-.861A2.32,2.32,0,0,0,5.67-8.092ZM6.062-1.708A2.513,2.513,0,0,0,7.413-2a1.007,1.007,0,0,0,.455-.91q0-1.218-1.806-1.218H3.416v2.422Zm9.6-1.764V0H13.4V-3.5L9.6-9.8h2.408L14.63-5.446,17.248-9.8h2.226ZM25.928-5.054H28v3.976a5.92,5.92,0,0,1-1.848.924,7.175,7.175,0,0,1-2.114.322,5.729,5.729,0,0,1-2.744-.651,4.846,4.846,0,0,1-1.911-1.806A4.976,4.976,0,0,1,18.69-4.9a4.976,4.976,0,0,1,.693-2.611,4.823,4.823,0,0,1,1.925-1.806,5.841,5.841,0,0,1,2.772-.651,6.066,6.066,0,0,1,2.338.434,4.633,4.633,0,0,1,1.764,1.26L26.726-6.93a3.368,3.368,0,0,0-2.534-1.106,3.459,3.459,0,0,0-1.666.392,2.812,2.812,0,0,0-1.134,1.106A3.255,3.255,0,0,0,20.986-4.9a3.227,3.227,0,0,0,.406,1.624,2.872,2.872,0,0,0,1.127,1.113,3.34,3.34,0,0,0,1.645.4,3.676,3.676,0,0,0,1.764-.42Z" transform="translate(-5376 -480) rotate(90)" fill="#40676e" stroke="rgba(0,0,0,0)" stroke-width="1"/></g></svg>